<svg width="64" height="64" viewBox="0 0 64 64" fill="none" xmlns="http://www.w3.org/2000/svg">
<path fill-rule="evenodd" clip-rule="evenodd" d="M59.7618 39.7411C59.7618 41.097 58.9032 41.7289 57.3664 41.7289H54.4296V40.373H57.3664C57.6377 40.373 57.8637 40.3281 57.9545 40.2381C58.0446 40.1473 58.135 40.0117 58.135 39.8312C58.135 39.65 58.0449 39.4695 57.9545 39.3794C57.8637 39.2887 57.6832 39.2438 57.412 39.2438C56.0115 39.1983 54.2488 39.2887 54.2488 37.3005C54.2488 36.3964 54.8361 35.4022 56.4177 35.4022H59.4453V36.7581H56.6434C56.3729 36.7581 56.1917 36.7581 56.0561 36.8481C55.9205 36.9838 55.8304 37.1194 55.8304 37.3454C55.8304 37.5715 55.966 37.7071 56.1465 37.7978C56.3277 37.8427 56.5085 37.8879 56.7345 37.8879H57.5476C58.4062 37.8879 58.9487 38.0684 59.3104 38.3852C59.581 38.7013 59.7618 39.1085 59.7618 39.7411ZM53.3898 38.3852C53.0282 38.0684 52.4857 37.8879 51.6271 37.8879H50.814C50.5883 37.8879 50.4071 37.8424 50.2266 37.7978C50.0455 37.7071 49.9105 37.5715 49.9105 37.3454C49.9105 37.1194 49.9554 36.9838 50.1362 36.8481C50.2718 36.7581 50.4523 36.7581 50.7236 36.7581H53.5254V35.4022H50.4979C48.8707 35.4022 48.3282 36.3964 48.3282 37.3005C48.3282 39.2884 50.091 39.1983 51.4921 39.2438C51.7627 39.2438 51.9438 39.2887 52.0339 39.3794C52.124 39.4695 52.2151 39.65 52.2151 39.8312C52.2151 40.0117 52.1243 40.1473 52.0339 40.2381C51.8983 40.3281 51.7178 40.373 51.4466 40.373H48.5091V41.7289H51.4466C52.9826 41.7289 53.8416 41.0967 53.8416 39.7411C53.8416 39.1085 53.6611 38.7013 53.3898 38.3852ZM47.6052 40.4189H44.0358V39.1534H47.5151V37.8886H44.0358V36.7132H47.6052V35.4028H42.5443V41.7292H47.6052V40.4189ZM40.9171 35.7193C40.4199 35.448 39.8325 35.4025 39.0643 35.4025H35.585V41.7289H37.121V39.4243H38.7482C39.29 39.4243 39.6068 39.4699 39.8328 39.6956C40.1041 40.0117 40.1041 40.5542 40.1041 40.961V41.7289H41.5949V40.5086C41.5949 39.9213 41.5501 39.65 41.3692 39.3339C41.2336 39.1527 40.963 38.927 40.6014 38.7914C41.0076 38.6564 41.686 38.114 41.686 37.1194C41.6857 36.3967 41.4144 35.9899 40.9171 35.7193ZM32.331 35.4025H27.4954L25.5522 37.4814L23.6993 35.4025H17.5986V41.7289H23.6092L25.5525 39.65L27.4054 41.7289H30.3429V39.6055H32.2409C33.5513 39.6055 34.8623 39.2438 34.8623 37.4814C34.862 35.7641 33.5061 35.4025 32.331 35.4025ZM39.6969 38.0239C39.4712 38.114 39.2451 38.114 38.9739 38.114L37.121 38.1595V36.7129H38.9739C39.2451 36.7129 39.5164 36.7129 39.6969 36.8485C39.878 36.9392 40.013 37.1197 40.013 37.391C40.013 37.6622 39.878 37.8882 39.6969 38.0239ZM32.331 38.34H30.3425V36.7129H32.331C32.8735 36.7129 33.2348 36.9392 33.2348 37.4814C33.2348 38.0239 32.8732 38.34 32.331 38.34ZM26.5012 38.5657L28.851 36.0806V41.1871L26.5012 38.5657ZM22.8407 40.4189H19.0898V39.1534H22.4338V37.8886H19.0898V36.7132H22.8859L24.5579 38.566L22.8407 40.4189ZM55.5588 30.8382H53.3898L50.5427 26.093V30.8382H47.4703L46.8822 29.4371H43.719L43.1317 30.8382H41.3689C40.6459 30.8382 39.6969 30.6573 39.155 30.1149C38.6578 29.5727 38.3865 28.8497 38.3865 27.7198C38.3865 26.7708 38.5221 25.9122 39.1996 25.2344C39.6513 24.7371 40.4651 24.5114 41.5042 24.5114H42.9502V25.8673H41.5042C40.9624 25.8673 40.6456 25.9577 40.3295 26.229C40.0582 26.5002 39.9226 26.9972 39.9226 27.675C39.9226 28.3527 40.0582 28.85 40.3295 29.1665C40.5552 29.3922 40.9624 29.4826 41.3686 29.4826H42.0467L44.2157 24.5117H46.4754L49.006 30.4768V24.5114H51.3561L54.0224 28.8949V24.5114H55.5585L55.5588 30.8382ZM37.6183 24.5114H36.0822V30.8382H37.6183V24.5114ZM34.4096 24.7827C33.9123 24.5114 33.3704 24.5114 32.6022 24.5114H29.1223V30.8382H30.6134V28.5332H32.2403C32.7828 28.5332 33.1444 28.5785 33.3701 28.8045C33.6414 29.1209 33.5958 29.6634 33.5958 30.0248V30.8382H35.1319V29.5727C35.1319 29.0305 35.087 28.7593 34.8613 28.4428C34.7257 28.262 34.4544 28.036 34.1383 27.9007C34.5445 27.7198 35.223 27.2229 35.223 26.2287C35.2233 25.5057 34.9065 25.0988 34.4096 24.7827ZM28.0376 29.5278H24.5127V28.2623H27.9924V26.952H24.5127V25.8221H28.0376V24.5117H22.9763V30.8385H28.0376V29.5278ZM21.8465 24.5114H19.361L17.5082 28.8045L15.5197 24.5114H13.0795V30.4765L10.5037 24.5114H8.24426L5.5328 30.8382H7.15961L7.74698 29.4371H10.9102L11.4976 30.8382H14.5707V25.8673L16.7849 30.8382H18.0952L20.3097 25.8673V30.8382H21.8461L21.8465 24.5114ZM46.3404 28.0815L45.3006 25.5961L44.2615 28.0815H46.3404ZM33.2348 27.0876C33.0091 27.2232 32.7831 27.2232 32.4666 27.2232H30.6134V25.8224H32.4663C32.7375 25.8224 33.0533 25.8224 33.2345 25.9129C33.415 26.0485 33.5057 26.2293 33.5057 26.5002C33.5057 26.7711 33.4153 26.9968 33.2348 27.0876ZM8.28914 28.0815L9.32859 25.5961L10.368 28.0815H8.28914Z" fill="white"/>
</svg>
