<svg width="75" height="22" viewBox="0 0 75 22" fill="none" xmlns="http://www.w3.org/2000/svg">
<g clip-path="url(#clip0_3010_355)">
<path fill-rule="evenodd" clip-rule="evenodd" d="M70.0972 18.676C70.0972 20.3102 69.0466 21.0106 67.2957 21.0106H63.9105V19.3763H67.2957C67.6458 19.3763 67.8793 19.3763 67.996 19.2596C68.1128 19.1429 68.2295 19.0262 68.2295 18.7927C68.2295 18.5592 68.1128 18.3258 67.996 18.209C67.8793 18.0923 67.6458 18.0923 67.4124 18.0923C65.7782 18.0923 63.677 18.0923 63.677 15.8744C63.677 14.8239 64.3774 13.6565 66.2451 13.6565H69.747V15.2908H66.4785C66.1283 15.2908 65.8949 15.2908 65.7782 15.4075C65.6614 15.5242 65.5447 15.7577 65.5447 15.9912C65.5447 16.2246 65.6614 16.4581 65.8949 16.5748C66.1283 16.5748 66.3618 16.6915 66.5953 16.6915H67.5291C68.5797 16.6915 69.1633 16.925 69.6303 17.2752C69.8637 17.3919 70.0972 17.8589 70.0972 18.676ZM62.6264 17.0417C62.1595 16.6915 61.5758 16.4581 60.5253 16.4581H59.5914C59.358 16.4581 59.1245 16.4581 58.891 16.3414C58.6576 16.2246 58.5409 16.1079 58.5409 15.7577C58.5409 15.5242 58.5408 15.2908 58.7743 15.174C58.891 15.0573 59.1245 15.0573 59.4747 15.0573H62.7432V13.4231H59.2412C57.3735 13.4231 56.6732 14.5904 56.6732 15.641C56.6732 17.9756 58.7743 17.8589 60.4085 17.8589C60.7587 17.8589 60.9922 17.8588 60.9922 17.9756C61.1089 18.0923 61.2257 18.3258 61.2257 18.5592C61.2257 18.7927 61.1089 18.9094 60.9922 19.0262C60.8755 19.1429 60.642 19.1429 60.2918 19.1429H56.9066V20.7771H60.2918C62.0428 20.7771 63.0933 20.0767 63.0933 18.4425C63.0933 17.8589 62.9766 17.3919 62.6264 17.0417ZM55.856 19.3763H51.6537V17.8589H55.7393V16.3414H51.6537V14.9406H55.856V13.4231H49.9028V20.7771H55.856V19.3763ZM48.0351 13.89C47.4514 13.5398 46.751 13.5398 45.8172 13.5398H41.7316V20.8938H43.4826V18.209H45.3503C45.9339 18.209 46.4009 18.209 46.6343 18.5592C46.9845 18.9094 46.9845 19.6098 46.9845 20.0767V21.0106H48.7355V19.6098C48.7355 18.9094 48.7355 18.5592 48.502 18.209C48.3853 17.9756 48.0351 17.7421 47.5682 17.6254C48.0351 17.5087 48.8522 16.8083 48.8522 15.641C48.9689 14.7071 48.6187 14.2402 48.0351 13.89ZM37.9962 13.5398H32.3932L30.1753 15.9912L27.9574 13.5398H20.8368V20.8938H27.8407L30.0585 18.4425L32.2764 20.8938H35.6616V18.4425H37.8795C39.397 18.4425 40.9145 17.9756 40.9145 15.9912C41.0312 14.0067 39.397 13.5398 37.9962 13.5398ZM46.6343 16.5748C46.4009 16.6915 46.0507 16.6915 45.8172 16.6915H43.5993V15.0573H45.8172C46.1674 15.0573 46.4009 15.0573 46.6343 15.174C46.8678 15.2908 46.9845 15.5242 46.9845 15.7577C46.9845 16.2246 46.8678 16.4581 46.6343 16.5748ZM37.9962 17.0417H35.6616V15.174H37.9962C38.5799 15.174 39.0468 15.4075 39.0468 16.1079C39.0468 16.5748 38.6966 17.0417 37.9962 17.0417ZM31.2259 17.2752L33.9107 14.3569V20.3102L31.2259 17.2752ZM26.9068 19.3763H22.4711V17.8589H26.3232V16.3414H22.4711V14.9406H26.9068L28.8912 17.1585L26.9068 19.3763ZM65.1945 8.28693H62.6264L59.358 2.80058V8.28693H55.7393L55.0389 6.6527H51.3035L50.6032 8.28693H48.502C47.6849 8.28693 46.5176 8.05347 45.9339 7.46981C45.3503 6.88616 45.0001 5.95231 45.0001 4.66828C45.0001 3.6177 45.1168 2.56712 45.9339 1.75001C46.5176 1.16635 47.4514 0.932893 48.6187 0.932893H50.4864V2.56712H48.8522C48.2685 2.56712 47.8016 2.68385 47.4514 3.03405C47.1012 3.38424 46.9845 3.96789 46.9845 4.66828C46.9845 5.48539 47.1012 6.06905 47.4514 6.41924C47.6849 6.6527 48.1518 6.76943 48.6187 6.76943H49.3191L51.8872 0.932893H54.572L57.4903 7.93674V0.932893H60.2918L63.3268 5.95231V0.816162H65.0778L65.1945 8.28693ZM44.183 0.816162H42.432V8.1702H44.183V0.816162ZM40.4476 1.16635C39.8639 0.816162 39.2803 0.816162 38.3464 0.816162H34.2609V8.1702H36.0118V5.60212H37.8795C38.4632 5.60212 38.9301 5.60212 39.1635 5.95231C39.5137 6.30251 39.397 7.00289 39.397 7.35308V8.28693H41.148V6.76943C41.148 6.18578 41.148 5.83558 40.7978 5.48539C40.681 5.25193 40.3309 5.01847 39.9807 4.90174C40.4476 4.66828 41.2647 4.08462 41.2647 2.91732C41.3814 1.98347 41.0312 1.51655 40.4476 1.16635ZM32.9768 6.6527H28.8912V5.25193H32.9768V3.73443H28.8912V2.33366H32.9768V0.816162H27.1403V8.1702H32.9768V6.6527ZM25.7395 0.816162H22.8212L20.6034 5.83558L18.2687 0.816162H15.4672V7.82001L12.4322 0.816162H9.86413L6.7124 8.28693H8.58009L9.28048 6.6527H13.0159L13.7162 8.28693H17.3349V2.45039L19.903 8.28693H21.4205L23.9886 2.45039V8.28693H25.7395V0.816162ZM54.3385 5.01847L53.1712 2.1002L52.0039 5.01847H54.3385ZM39.0468 3.85116C38.8134 3.96789 38.4632 3.96789 38.113 3.96789H35.8951V2.33366H38.113C38.4632 2.33366 38.8134 2.33366 39.0468 2.45039C39.2803 2.56712 39.397 2.80058 39.397 3.15078C39.397 3.50097 39.2803 3.73443 39.0468 3.85116ZM9.98086 5.01847L11.1482 2.1002L12.3155 5.01847H9.98086Z" fill="white"/>
</g>
<defs>
<clipPath id="clip0_3010_355">
<rect width="74.7077" height="21.245" fill="white" transform="translate(0.292236 0.232483)"/>
</clipPath>
</defs>
</svg>
