<svg width="59" height="60" viewBox="0 0 59 60" fill="none" xmlns="http://www.w3.org/2000/svg">
<g clip-path="url(#clip0_3003_237)">
<path d="M26.772 25.919C26.7987 25.8259 26.8253 25.7262 27.2045 25.7262C28.3817 25.7262 28.6076 26.544 28.6076 27.2159C28.6076 27.6214 28.3882 29.6698 26.2933 29.6698C25.9808 29.6698 25.821 29.63 25.821 29.4105C25.821 29.304 25.9076 29.0114 25.9673 28.7919L26.772 25.919V25.919ZM25.5553 25.6328C25.8945 25.6594 26.0674 25.6928 26.0674 25.919C26.0674 26.0521 26.0142 26.2581 25.9943 26.3313L25.1764 29.271C25.0635 29.6832 24.9637 29.7031 24.6377 29.7628V29.8694H26.3203C28.2755 29.8694 29.3462 28.6389 29.3462 27.2958C29.3462 26.5976 28.9339 25.5266 27.4044 25.5266H25.5556V25.6328H25.5553ZM30.7224 29.1843C30.4631 29.5767 30.1705 29.9425 29.798 29.9425C29.4855 29.9425 29.4855 29.6499 29.4855 29.5302C29.4855 29.2177 30.0107 27.5682 30.0107 27.3821C30.0107 27.2425 29.9575 27.2092 29.5917 27.2092V27.1026C29.8445 27.0895 30.3964 26.983 30.6557 26.9364L30.6756 26.9496L30.0903 29.091C30.0637 29.184 29.9838 29.45 29.9838 29.5299C29.9838 29.5764 30.0303 29.6297 30.0903 29.6297C30.1702 29.6297 30.363 29.4965 30.6358 29.1109L30.7224 29.1843V29.1843ZM30.5895 26.2248C30.4233 26.2248 30.2703 26.1115 30.2703 25.8789C30.2703 25.6463 30.4233 25.5199 30.5828 25.5199C30.8023 25.5199 30.9152 25.7393 30.9152 25.8856C30.9152 26.0185 30.8087 26.2248 30.5895 26.2248V26.2248ZM33.8282 29.1776C33.4958 29.6233 33.2629 29.929 32.9039 29.929C32.5978 29.929 32.5846 29.7295 32.5846 29.5366C32.5846 29.3772 33.0768 27.7543 33.0768 27.4883C33.0768 27.3686 33.037 27.2756 32.9106 27.2756C32.5914 27.2756 32.1723 27.8476 31.933 28.2199C31.6272 28.6787 31.5406 28.9649 31.2681 29.869H30.7695C30.9755 29.1176 31.4212 27.5615 31.4212 27.4216C31.4212 27.3218 31.3548 27.2486 30.9957 27.2486V27.1421C31.3548 27.0757 31.7138 27.0093 32.0731 26.9361L32.093 26.9493L31.6673 28.3392L31.6804 28.3524C31.993 27.8602 32.6048 26.9358 33.1567 26.9358C33.4628 26.9358 33.6155 27.0953 33.6155 27.3747C33.6155 27.6606 33.0835 29.3034 33.0835 29.503C33.0835 29.6027 33.1766 29.6162 33.1901 29.6162C33.3232 29.6162 33.4894 29.4035 33.7355 29.0907L33.8282 29.1776V29.1776ZM34.6795 28.1932C34.9256 27.6012 35.3777 27.0895 35.737 27.0895C35.9032 27.0895 35.9696 27.2159 35.9696 27.3555C35.9696 27.4087 35.9366 28.2067 34.5665 28.4861L34.6795 28.1932V28.1932ZM36.0492 29.1442C35.7168 29.417 35.4373 29.6432 35.0783 29.6432C34.7988 29.6432 34.4533 29.4901 34.4533 29.0377C34.4533 28.9046 34.4866 28.7717 34.5197 28.6321L34.7058 28.6055C35.7832 28.4525 36.4083 27.9138 36.4083 27.3885C36.4083 27.0959 36.2019 26.9361 35.8628 26.9361C34.9253 26.9361 33.8745 28.0533 33.8745 29.0043C33.8745 29.4234 34.0872 29.9419 34.7857 29.9419C35.4508 29.9419 36.0559 29.33 36.1291 29.2235L36.0492 29.1442V29.1442ZM36.4551 29.869L36.9938 27.9272C37.0602 27.6811 37.1 27.4552 37.1 27.3953C37.1 27.3022 37.0669 27.196 36.8606 27.196C36.7875 27.196 36.7143 27.2159 36.6412 27.229V27.1161C36.9803 27.0696 37.3727 26.983 37.6721 26.9364L37.692 26.9496L37.3663 28.2731L37.3795 28.2863L37.4327 28.1531C37.6522 27.7142 38.1578 26.9361 38.5766 26.9361C38.7296 26.9361 38.8958 27.0359 38.8958 27.2618C38.8958 27.6077 38.6565 27.6077 38.5833 27.6077C38.2974 27.6077 38.3972 27.3683 38.2374 27.3683C38.0314 27.3683 37.6323 28.1066 37.579 28.2064C37.3262 28.6851 37.2332 28.9845 36.9604 29.869H36.4551V29.869ZM38.5564 28.8981C38.6029 29.1908 38.7094 29.8026 39.2481 29.8026C39.6203 29.8026 39.7268 29.4834 39.7268 29.2639C39.7268 28.825 38.9356 28.1865 38.9356 27.6744C38.9356 27.4684 39.0287 26.9361 39.7336 26.9361C40.0329 26.9361 40.1658 27.0494 40.3653 27.0494C40.4786 27.0494 40.5184 26.983 40.5514 26.9294H40.6445L40.5113 27.8541H40.4048C40.3718 27.4748 40.212 27.0892 39.7798 27.0892C39.6335 27.0892 39.4208 27.1489 39.4208 27.4748C39.4208 27.8939 40.2319 28.4858 40.2319 29.0509C40.2319 29.7757 39.6133 29.9422 39.2411 29.9422C39.0415 29.9422 38.7755 29.8158 38.5827 29.8158C38.4896 29.8158 38.463 29.8822 38.4232 29.9557H38.3167L38.4498 28.8981H38.5564V28.8981ZM46.1446 26.7568C46.1314 26.5707 46.0714 25.6793 45.1204 25.6793C43.7904 25.6793 43.1118 27.2887 43.1118 28.2664C43.1118 29.1378 43.4776 29.6897 44.2692 29.6897C45.0206 29.6897 45.4862 29.2174 45.8054 28.9049L45.9184 28.9979C45.6723 29.2905 45.0803 29.9887 44.1094 29.9887C43.3377 29.9887 42.3671 29.5232 42.3671 28.1932C42.3671 26.9098 43.544 25.44 45.0671 25.44C45.5458 25.44 45.9517 25.5994 46.1045 25.5994C46.2973 25.5994 46.3371 25.5196 46.3704 25.4531H46.51L46.2639 26.7767L46.1446 26.7568ZM47.368 29.1109C47.0288 29.6229 46.7693 29.9422 46.357 29.9422C46.0644 29.9422 46.0377 29.716 46.0377 29.5299C46.0377 29.39 47.0022 25.9187 47.0022 25.7791C47.0022 25.6065 46.7228 25.6065 46.5498 25.6129V25.5064C46.8957 25.4666 47.2416 25.4066 47.5871 25.327L47.6205 25.3601L46.6162 29.2107C46.6031 29.2706 46.5498 29.45 46.5498 29.5232C46.5498 29.563 46.5498 29.6563 46.6496 29.6563C46.8158 29.6563 46.9557 29.4702 47.2814 29.0509L47.368 29.1109V29.1109ZM50.4405 29.151C50.0214 29.7561 49.8485 29.929 49.5161 29.929C49.2167 29.929 49.2036 29.6829 49.2036 29.5832C49.2036 29.4635 49.3367 28.9049 49.4895 28.3594H49.4696C49.0172 29.1109 48.5253 29.9422 47.9266 29.9422C47.6872 29.9422 47.5608 29.8424 47.5608 29.5498C47.5608 29.2572 48.0662 27.581 48.0662 27.4017C48.0662 27.2088 47.9398 27.2088 47.6673 27.2088V27.1161C48.003 27.0755 48.3361 27.0155 48.6649 26.9364L48.6848 26.9496L48.0793 29.3637C48.0594 29.45 48.0793 29.5896 48.2192 29.5896C48.5051 29.5896 48.9241 28.9646 49.1503 28.6187C49.4763 28.1265 49.6226 27.7075 49.8819 26.9958H50.3741L49.8488 28.9845C49.809 29.1176 49.7224 29.4102 49.7224 29.51C49.7224 29.5431 49.7288 29.6165 49.8023 29.6165C49.9287 29.6165 50.1148 29.3836 50.3477 29.091L50.4405 29.151V29.151ZM52.8546 27.8274C52.8546 28.3861 52.2228 29.7895 51.3116 29.7895C50.9991 29.7895 50.9991 29.6165 50.9991 29.57C50.9991 28.8718 51.6376 27.2621 52.3691 27.2621C52.7882 27.2621 52.8546 27.6214 52.8546 27.8274V27.8274ZM51.0058 25.593C51.3915 25.5998 51.438 25.6328 51.438 25.7859C51.438 25.8789 51.3783 26.0451 51.3318 26.2315L50.4273 29.5633V29.5899C50.4273 29.7362 50.9394 29.9425 51.292 29.9425C52.3094 29.9425 53.4199 28.7919 53.4199 27.7411C53.4199 27.2557 53.0942 26.9364 52.6287 26.9364C52.0303 26.9364 51.6113 27.555 51.3918 27.9006L51.3786 27.8942C51.6048 27.1424 51.9106 25.9055 52.0569 25.3604L52.0239 25.3273C51.678 25.3938 51.3388 25.4403 51.0064 25.4804V25.593H51.0058ZM24.6398 34.9449C24.9658 34.8849 25.0656 34.865 25.1786 34.4527L25.9964 31.513C26.0362 31.3799 26.0696 31.2204 26.0696 31.1007C26.0696 30.8681 25.8902 30.8482 25.604 30.8149V30.7083H27.2468V30.8149C26.9211 30.8748 26.8146 30.888 26.7013 31.307L25.8835 34.2531C25.8437 34.3863 25.8103 34.5191 25.8103 34.6789C25.8103 34.8916 25.9765 34.9118 26.2627 34.9449V35.0514H24.6398V34.9449V34.9449Z" fill="white"/>
<path d="M29.4614 34.3597C29.1287 34.8053 28.8961 35.1114 28.5367 35.1114C28.231 35.1114 28.2175 34.9119 28.2175 34.719C28.2175 34.5596 28.7097 32.9367 28.7097 32.6707C28.7097 32.551 28.6699 32.458 28.5435 32.458C28.2242 32.458 27.8052 33.03 27.5658 33.4022C27.2598 33.8611 27.1734 34.147 26.9007 35.0514H26.4021C26.6081 34.3 27.0538 32.7435 27.0538 32.604C27.0538 32.5042 26.9873 32.431 26.6283 32.431V32.3245C26.9873 32.2581 27.3464 32.1914 27.7057 32.1182L27.7256 32.1317L27.3002 33.5216L27.3133 33.5351C27.6258 33.0429 28.2377 32.1185 28.7896 32.1185C29.0957 32.1185 29.2487 32.2783 29.2487 32.5578C29.2487 32.8436 28.7167 34.4864 28.7167 34.686C28.7167 34.7858 28.8098 34.7989 28.8232 34.7989C28.9564 34.7989 29.1226 34.5862 29.3684 34.2737L29.4614 34.3597V34.3597ZM31.237 32.4176H30.6784L30.0932 34.6321C30.0865 34.652 30.0865 34.6652 30.0865 34.6854C30.0865 34.745 30.1195 34.7983 30.193 34.7983C30.3261 34.7983 30.5588 34.4858 30.725 34.2731L30.8113 34.3196C30.4721 34.8317 30.2129 35.1243 29.867 35.1243C29.7338 35.1243 29.5477 35.0579 29.5477 34.8583C29.5477 34.7585 29.6742 34.3529 29.7008 34.2464L30.1795 32.4176H29.6873C29.6809 32.3778 29.6809 32.3444 29.7008 32.311C29.7406 32.2511 29.9267 32.2045 30.0399 32.1448C30.2594 32.0316 30.5786 31.7325 30.7647 31.4996C30.7914 31.4666 30.818 31.4066 30.8777 31.42C30.9242 31.4066 30.9377 31.4666 30.9242 31.5198L30.7381 32.2048H31.2701L31.237 32.4176V32.4176ZM31.8287 33.3753C32.0748 32.7833 32.5272 32.2713 32.8862 32.2713C33.0524 32.2713 33.1192 32.3977 33.1192 32.5372C33.1192 32.5905 33.0858 33.3885 31.7161 33.6679L31.8287 33.3753V33.3753ZM33.1987 34.3263C32.8663 34.599 32.5869 34.8249 32.2278 34.8249C31.9484 34.8249 31.6028 34.6719 31.6028 34.2198C31.6028 34.0867 31.6359 33.9538 31.6692 33.8142L31.8553 33.7876C32.9328 33.6346 33.5578 33.0959 33.5578 32.5703C33.5578 32.2777 33.3515 32.1179 33.0123 32.1179C32.0748 32.1179 31.0237 33.2351 31.0237 34.1861C31.0237 34.6052 31.2364 35.1237 31.9349 35.1237C32.6 35.1237 33.2052 34.5118 33.2783 34.4056L33.1987 34.3263ZM33.7375 35.0511L34.2762 33.1093C34.3426 32.8632 34.3827 32.637 34.3827 32.5773C34.3827 32.4843 34.3493 32.3778 34.1433 32.3778C34.0702 32.3778 33.997 32.3977 33.9239 32.4111V32.2979C34.263 32.2514 34.6554 32.1647 34.9548 32.1182L34.9747 32.1317L34.649 33.4552L34.6621 33.4684L34.7154 33.3352C34.9349 32.8963 35.4402 32.1179 35.8592 32.1179C36.0123 32.1179 36.1785 32.2177 36.1785 32.4439C36.1785 32.7898 35.9391 32.7898 35.866 32.7898C35.5801 32.7898 35.6799 32.5504 35.5204 32.5504C35.3141 32.5504 34.915 33.2887 34.862 33.3885C34.6092 33.8672 34.5161 34.1665 34.2434 35.0511H33.7375V35.0511Z" fill="white"/>
<path d="M38.8447 34.3598C38.5123 34.8054 38.2793 35.1115 37.9203 35.1115C37.6142 35.1115 37.601 34.9119 37.601 34.7191C37.601 34.5596 38.0932 32.9368 38.0932 32.6708C38.0932 32.5511 38.0534 32.458 37.927 32.458C37.6081 32.458 37.1887 33.0301 36.9494 33.4023C36.6436 33.8611 36.557 34.147 36.2843 35.0515H35.7856C35.9919 34.3001 36.4373 32.7436 36.4373 32.604C36.4373 32.5043 36.3709 32.4311 36.0115 32.4311V32.3246C36.3706 32.2582 36.7299 32.1914 37.089 32.1183L37.1089 32.1318L36.6831 33.5217L36.6963 33.5352C37.0088 33.043 37.6206 32.1186 38.1728 32.1186C38.4789 32.1186 38.6316 32.2784 38.6316 32.5578C38.6316 32.8437 38.0997 34.4865 38.0997 34.686C38.0997 34.7858 38.1927 34.799 38.2062 34.799C38.3393 34.799 38.5055 34.5863 38.7516 34.2737L38.8447 34.3598V34.3598Z" fill="white"/>
<path d="M39.3571 34.3263C39.3571 33.7276 39.9558 32.2648 40.7338 32.2648C40.9267 32.2648 41.1131 32.3912 41.1131 32.7104C41.1131 33.3621 40.4614 34.7986 39.7562 34.7986C39.5765 34.7986 39.3571 34.6789 39.3571 34.3263ZM41.7712 34.3195C41.4718 34.6122 41.3387 34.7787 41.2392 34.7787C41.1859 34.7787 41.1461 34.7389 41.1461 34.692C41.1461 34.4861 41.758 32.218 41.7779 32.1384L41.7314 32.1185L41.3258 32.165L41.3059 32.1849L41.2395 32.4778H41.2263C41.2064 32.2914 40.987 32.1185 40.7011 32.1185C39.8165 32.1185 38.7991 33.3621 38.7991 34.3397C38.7991 34.5326 38.819 35.1242 39.4841 35.1242C39.8832 35.1242 40.2355 34.9247 40.7874 34.1135L40.8006 34.1267C40.6941 34.5323 40.661 34.6786 40.661 34.8316C40.661 34.9446 40.661 35.1175 40.9405 35.1175C41.2263 35.1175 41.4525 34.8781 41.8517 34.386L41.7712 34.3195V34.3195ZM43.7463 32.4175H43.1877L42.6025 34.6321C42.5958 34.652 42.5958 34.6651 42.5958 34.6853C42.5958 34.745 42.6291 34.7983 42.7023 34.7983C42.8354 34.7983 43.0681 34.4857 43.2343 34.273L43.3206 34.3195C42.9814 34.8316 42.7222 35.1242 42.3763 35.1242C42.2432 35.1242 42.0571 35.0578 42.0571 34.8583C42.0571 34.7585 42.1835 34.3529 42.2101 34.2464L42.6888 32.4175H42.1966C42.1902 32.3777 42.1902 32.3444 42.2101 32.311C42.2499 32.251 42.436 32.2045 42.5492 32.1448C42.7687 32.0315 43.088 31.7325 43.2741 31.4996C43.3007 31.4665 43.3273 31.4065 43.3873 31.42C43.4338 31.4065 43.447 31.4665 43.4338 31.5198L43.2477 32.2048H43.7797L43.7463 32.4175ZM45.0233 34.3664C44.7638 34.7588 44.4715 35.1245 44.099 35.1245C43.7864 35.1245 43.7864 34.8319 43.7864 34.7123C43.7864 34.3997 44.3117 32.7505 44.3117 32.5641C44.3117 32.4243 44.2584 32.3912 43.8927 32.3912V32.2847C44.1452 32.2715 44.6971 32.165 44.9566 32.1185L44.9765 32.1319L44.3913 34.2733C44.3646 34.3664 44.2848 34.6324 44.2848 34.7123C44.2848 34.7588 44.3313 34.812 44.3913 34.812C44.4712 34.812 44.664 34.6789 44.9364 34.2932L45.0233 34.3664ZM44.8902 31.4068C44.724 31.4068 44.5709 31.2939 44.5709 31.0609C44.5709 30.8283 44.724 30.7019 44.8835 30.7019C45.1029 30.7019 45.2159 30.9214 45.2159 31.0677C45.2162 31.2005 45.1097 31.4068 44.8902 31.4068ZM47.1981 32.258C47.517 32.258 47.6636 32.5507 47.6636 32.8965C47.6636 33.6082 47.1384 34.9847 46.3802 34.9847C46.0478 34.9847 45.8482 34.7453 45.8482 34.3661C45.8479 33.5816 46.4531 32.258 47.1981 32.258V32.258ZM47.2446 32.1182C46.2737 32.1182 45.2893 33.1892 45.2893 34.1665C45.2893 34.7184 45.5887 35.1239 46.2936 35.1239C47.311 35.1239 48.2223 33.9204 48.2223 33.1022C48.2219 32.6636 48.0159 32.1182 47.2446 32.1182V32.1182Z" fill="white"/>
<path d="M51.1215 34.3597C50.7891 34.8053 50.5562 35.1114 50.1971 35.1114C49.8911 35.1114 49.8779 34.9118 49.8779 34.719C49.8779 34.5595 50.3701 32.9367 50.3701 32.6707C50.3701 32.551 50.3303 32.4579 50.2039 32.4579C49.8846 32.4579 49.4656 33.03 49.2262 33.4022C48.9202 33.861 48.8338 34.1469 48.5611 35.0514H48.0625C48.2688 34.3 48.7142 32.7435 48.7142 32.6039C48.7142 32.5042 48.6477 32.431 48.2884 32.431V32.3245C48.6474 32.2581 49.0068 32.1913 49.3658 32.1182L49.3857 32.1317L48.9599 33.5216L48.9731 33.5351C49.2856 33.0429 49.8975 32.1185 50.4497 32.1185C50.7558 32.1185 50.9085 32.2783 50.9085 32.5577C50.9085 32.8436 50.3765 34.4864 50.3765 34.6859C50.3765 34.7857 50.4696 34.7989 50.483 34.7989C50.6162 34.7989 50.7824 34.5862 51.0285 34.2736L51.1215 34.3597V34.3597ZM51.7665 34.3263C51.7665 33.7276 52.3652 32.2648 53.1432 32.2648C53.3361 32.2648 53.5222 32.3912 53.5222 32.7105C53.5222 33.3621 52.8705 34.7986 52.1656 34.7986C51.9859 34.7986 51.7665 34.6789 51.7665 34.3263ZM54.1806 34.3196C53.8812 34.6122 53.7481 34.7787 53.6486 34.7787C53.5953 34.7787 53.5555 34.7389 53.5555 34.6921C53.5555 34.4861 54.1674 32.218 54.1873 32.1384L54.1408 32.1185L53.7349 32.165L53.715 32.1849L53.6486 32.4778H53.6354C53.6155 32.2914 53.3961 32.1185 53.1102 32.1185C52.2256 32.1185 51.2082 33.3621 51.2082 34.3398C51.2082 34.5326 51.228 35.1243 51.8932 35.1243C52.292 35.1243 52.6446 34.9247 53.1965 34.1136L53.2097 34.1267C53.1031 34.5323 53.0701 34.6786 53.0701 34.8316C53.0701 34.9446 53.0701 35.1175 53.3492 35.1175C53.6354 35.1175 53.8613 34.8782 54.2604 34.386L54.1806 34.3196V34.3196ZM55.6902 34.2929C55.351 34.805 55.0918 35.1243 54.6795 35.1243C54.3869 35.1243 54.3602 34.8984 54.3602 34.712C54.3602 34.5724 55.3244 31.1007 55.3244 30.9612C55.3244 30.7882 55.0449 30.7882 54.872 30.795V30.6885C55.221 30.6481 55.5674 30.5881 55.9096 30.5088L55.9427 30.5421L54.9384 34.3927C54.9253 34.4524 54.872 34.6321 54.872 34.7052C54.872 34.745 54.872 34.8384 54.9718 34.8384C55.138 34.8384 55.2776 34.6523 55.6036 34.2332L55.6902 34.2929V34.2929ZM56.6228 30.6588H56.6911C56.7544 30.6588 56.8059 30.6903 56.8059 30.7852C56.8059 30.8733 56.7743 30.9364 56.6926 30.9364H56.6228V30.6588ZM56.4367 30.652C56.5181 30.6603 56.5166 30.6588 56.5166 30.7319V31.1292C56.5166 31.2005 56.5181 31.2005 56.4367 31.2091V31.2339H56.7027V31.2091C56.6198 31.2008 56.6228 31.2008 56.6228 31.1292V30.9664H56.7009C56.8056 31.121 56.8472 31.2339 56.9004 31.2339H57.0051V31.2189C56.9733 31.1956 56.9237 31.1393 56.8805 31.0793L56.7857 30.9495C56.8607 30.9248 56.917 30.8614 56.917 30.7769C56.917 30.6738 56.8255 30.6272 56.7275 30.6272H56.4364V30.652H56.4367ZM57.2647 30.9397C57.2647 30.6254 57.0204 30.3695 56.7042 30.3695C56.6295 30.3693 56.5554 30.3839 56.4863 30.4126C56.4172 30.4412 56.3545 30.4832 56.3017 30.5363C56.249 30.5893 56.2074 30.6523 56.1791 30.7215C56.1509 30.7908 56.1367 30.865 56.1374 30.9397C56.1374 31.2538 56.3853 31.5066 56.7042 31.5066C57.0204 31.5066 57.2647 31.2538 57.2647 30.9397ZM57.1732 30.9397C57.1732 31.2039 56.9653 31.4368 56.7042 31.4368C56.4383 31.4368 56.2289 31.2039 56.2289 30.9397C56.2289 30.6753 56.4367 30.4393 56.7042 30.4393C56.9672 30.4393 57.1732 30.6738 57.1732 30.9397Z" fill="white"/>
<path fill-rule="evenodd" clip-rule="evenodd" d="M23.2741 29.9067C23.3007 33.7028 20.1811 36.8227 16.3768 36.804H8.75336C4.90371 36.8224 1.78408 33.7028 1.73511 29.9067C1.78408 26.0068 4.90371 22.8875 8.75367 22.8884H16.3768C20.1811 22.8872 23.3004 26.0068 23.2741 29.9067ZM8.75388 23.3727C5.16502 23.3605 2.2575 26.2683 2.21955 29.9067C2.2575 33.4417 5.16502 36.3498 8.75388 36.3202C12.3388 36.3498 15.2466 33.442 15.2879 29.907C15.2466 26.2683 12.3388 23.3605 8.75388 23.3727Z" fill="white"/>
<path d="M7.30144 26.0348C5.79764 26.7134 4.6694 28.1642 4.6394 29.9068C4.6694 31.5838 5.74376 33.061 7.30144 33.6579V26.0348ZM10.2056 33.6582C11.7596 33.0613 12.8336 31.5838 12.8676 29.9071C12.8336 28.1269 11.7593 26.6494 10.2056 26.0351V33.6582Z" fill="white"/>
</g>
<defs>
<clipPath id="clip0_3003_237">
<rect width="59" height="59" fill="white" transform="translate(0 0.35498)"/>
</clipPath>
</defs>
</svg>
