<svg width="83" height="22" viewBox="0 0 83 22" fill="none" xmlns="http://www.w3.org/2000/svg">
<path d="M37.9094 5.25378C37.9094 5.11374 38.0494 4.97371 38.4695 4.97371C40.1499 4.97371 40.43 6.09398 40.43 7.07422C40.43 7.63435 40.1499 10.5751 37.2092 10.5751C36.7891 10.5751 36.509 10.5751 36.509 10.155C36.509 10.0149 36.6491 9.59483 36.6491 9.31476L37.9094 5.25378ZM36.229 4.97371C36.6491 4.97371 36.9291 5.11374 36.9291 5.39381C36.9291 5.53385 36.7891 5.81391 36.7891 5.95395L35.6688 10.0149C35.5288 10.5751 35.3887 10.5751 34.9686 10.7151V10.8551H37.3492C40.1499 10.8551 41.5502 9.17473 41.5502 7.21425C41.4102 6.23401 40.8501 4.83368 38.7496 4.83368H36.229V4.97371ZM43.3707 9.8749C42.9506 10.435 42.5305 10.9952 42.1104 10.9952C41.6903 10.9952 41.6903 10.5751 41.6903 10.435C41.6903 10.0149 42.3904 7.63435 42.3904 7.49432C42.3904 7.35429 42.2504 7.21425 41.8303 7.21425V6.93418C42.2504 6.93418 42.9506 6.79415 43.3707 6.65412L42.5305 9.59483C42.5305 9.8749 42.3904 10.295 42.3904 10.435C42.3904 10.435 42.3904 10.5751 42.5305 10.5751C42.6705 10.5751 42.9506 10.295 43.3707 9.8749ZM43.2306 5.81391C42.9506 5.81391 42.8105 5.67388 42.8105 5.39381C42.8105 5.11374 43.0906 4.83368 43.2306 4.83368C43.5107 4.83368 43.6507 5.11374 43.6507 5.39381C43.6507 5.39381 43.5107 5.81391 43.2306 5.81391ZM47.7117 9.8749C47.2916 10.435 46.8715 10.9952 46.4514 10.9952C46.0313 10.9952 46.0313 10.7151 46.0313 10.435C46.0313 10.155 46.7315 7.91442 46.7315 7.63435C46.7315 7.49432 46.7315 7.35429 46.4514 7.35429C46.0313 7.35429 45.4712 8.19449 45.0511 8.61459C44.631 9.31476 44.491 9.59483 44.0708 10.8551H43.3707C43.7908 9.73486 44.3509 7.63435 44.3509 7.35429C44.3509 7.21425 44.2109 7.07422 43.7908 7.07422C44.3509 6.93418 44.771 6.93418 45.3312 6.79415L44.771 8.75462C45.1911 8.05446 46.0313 6.79415 46.8715 6.79415C47.2916 6.79415 47.5717 7.07422 47.5717 7.35429C47.5717 7.77439 46.8715 10.0149 46.8715 10.295C46.7315 10.435 46.8715 10.435 46.8715 10.435C47.0116 10.435 47.2916 10.155 47.7117 9.8749ZM48.972 8.47456C49.2521 7.63435 49.9523 6.93418 50.5124 6.93418C50.7925 6.93418 50.7925 7.07422 50.7925 7.35429C50.7925 7.49432 50.7925 8.61459 48.832 8.89466L48.972 8.47456ZM50.7925 9.8749C50.3724 10.295 49.9523 10.5751 49.3921 10.5751C48.972 10.5751 48.5519 10.295 48.5519 9.73486C48.5519 9.59483 48.5519 9.31476 48.692 9.17473H48.972C50.5124 8.89466 51.3526 8.19449 51.3526 7.49432C51.3526 7.07422 51.0725 6.79415 50.6524 6.79415C49.3921 6.79415 47.8518 8.33452 47.8518 9.73486C47.8518 10.295 48.1318 10.9952 49.1121 10.9952C50.0923 10.9952 50.9325 10.155 50.7925 9.8749ZM51.4926 10.8551L52.1928 8.19449C52.3328 7.91442 52.3328 7.49432 52.3328 7.49432C52.3328 7.35429 52.3328 7.21425 52.0528 7.21425C51.9127 7.21425 51.9127 7.21425 51.7727 7.21425V6.93418C52.1928 6.93418 52.753 6.79415 53.1731 6.65412L52.753 8.47456L52.893 8.33452C53.1731 7.77439 53.8732 6.65412 54.4334 6.65412C54.7134 6.65412 54.8535 6.79415 54.8535 7.07422C54.8535 7.63435 54.5734 7.63435 54.4334 7.63435C54.0133 7.63435 54.1533 7.35429 54.0133 7.35429C53.7332 7.35429 53.173 8.33452 53.033 8.47456C52.6129 9.17473 52.6129 9.59483 52.1928 10.8551H51.4926ZM54.4334 9.45479C54.4334 9.8749 54.7134 10.7151 55.4136 10.7151C55.9737 10.7151 56.1138 10.295 56.1138 10.0149C56.1138 9.45479 54.9935 8.47456 54.9935 7.77439C54.9935 7.49432 55.1335 6.79415 56.1138 6.79415C56.5339 6.79415 56.6739 6.93418 56.954 6.93418C57.094 6.93418 57.234 6.79415 57.234 6.79415H57.3741L57.234 8.05446H57.094C57.094 7.49432 56.8139 6.93418 56.2538 6.93418C56.1138 6.93418 55.6937 7.07422 55.6937 7.49432C55.6937 8.05446 56.8139 8.89466 56.8139 9.73486C56.8139 10.7151 55.9737 10.9952 55.4136 10.9952C55.1335 10.9952 54.7134 10.8551 54.4334 10.8551C54.2933 10.8551 54.2933 10.9952 54.1533 10.9952H54.0133L54.1533 9.45479H54.4334V9.45479ZM64.9359 6.51408C64.9359 6.23401 64.7959 4.97371 63.5356 4.97371C61.7151 4.97371 60.7349 7.21425 60.7349 8.61459C60.7349 9.8749 61.295 10.5751 62.4153 10.5751C63.5356 10.5751 64.0957 9.8749 64.5158 9.45479L64.6558 9.59483C64.3758 10.0149 63.5356 10.9952 62.1352 10.9952C61.0149 10.9952 59.7546 10.295 59.7546 8.47456C59.7546 6.65412 61.435 4.55361 63.5356 4.55361C64.2357 4.55361 64.7959 4.83368 64.9359 4.83368C65.216 4.83368 65.216 4.69364 65.356 4.69364H65.496L65.216 6.51408H64.9359ZM66.7563 9.73486C66.3362 10.435 65.9161 10.8551 65.356 10.8551C64.9359 10.9952 64.7959 10.5751 64.7959 10.435C64.7959 10.295 66.1962 5.39381 66.1962 5.11374C66.1962 4.83368 65.7761 4.83368 65.496 4.83368V4.69364C65.9161 4.69364 66.4763 4.55361 66.8964 4.41357L65.496 9.8749C65.496 10.0149 65.356 10.155 65.356 10.295C65.356 10.295 65.356 10.435 65.496 10.435C65.9161 10.5751 66.1962 10.295 66.7563 9.73486ZM70.9574 9.8749C70.3972 10.7151 70.1171 10.9952 69.697 10.9952C69.2769 10.9952 69.2769 10.7151 69.2769 10.5751C69.2769 10.435 69.417 9.59483 69.697 8.89466C68.9969 10.0149 68.4367 11.1352 67.5965 11.1352C67.3165 11.1352 67.0364 10.9952 67.0364 10.5751C67.0364 10.155 67.7366 7.77439 67.7366 7.63435C67.7366 7.35429 67.5965 7.35429 67.1764 7.35429V6.93418C67.5965 6.93418 68.1567 6.79415 68.5768 6.65412L67.7366 10.0149C67.7366 10.155 67.7366 10.295 67.8766 10.295C68.2967 10.295 68.8568 9.45479 69.1369 8.89466C69.557 8.19449 69.8371 7.63435 70.1171 6.65412H70.8173L70.1171 9.45479C70.1171 9.59483 69.9771 10.0149 69.9771 10.155C69.9771 10.155 69.9771 10.295 70.1171 10.295C70.2572 10.435 70.5373 10.155 70.9574 9.8749ZM74.4582 8.05446C74.4582 8.89466 73.618 10.8551 72.3577 10.8551C71.7976 10.7151 71.7976 10.435 71.7976 10.435C71.7976 9.45479 72.6378 7.21425 73.758 7.21425C74.3182 7.21425 74.4582 7.63435 74.4582 8.05446ZM71.7976 4.83368C72.3577 4.83368 72.3577 4.83368 72.3577 5.11374C72.3577 5.25378 72.2177 5.53385 72.2177 5.67388L70.9574 10.435C70.9574 10.5751 71.6575 10.9952 72.2177 10.9952C73.618 10.9952 75.1584 9.31476 75.1584 7.91442C75.1584 7.21425 74.7383 6.79415 74.0381 6.79415C73.1979 6.79415 72.6378 7.63435 72.3577 8.19449C72.6378 7.07422 73.0579 5.39381 73.3379 4.69364C72.9178 4.83368 72.3577 4.83368 71.9376 4.97371L71.7976 4.83368ZM34.8286 17.9969C35.2487 17.8568 35.3887 17.8568 35.5288 17.2967L36.7891 13.0957C36.7891 12.9556 36.9291 12.6756 36.9291 12.5355C36.9291 12.2555 36.6491 12.1154 36.229 12.1154V11.9754H38.4695V12.1154C38.0494 12.2555 37.9094 12.2555 37.7693 12.8156L36.6491 16.8766C36.6491 17.0166 36.509 17.2967 36.509 17.4367C36.509 17.7168 36.7891 17.7168 37.2092 17.8568V17.9969H34.9686H34.8286Z" fill="white"/>
<path d="M41.6904 17.1566C41.2703 17.7167 40.8502 18.2769 40.4301 18.2769C40.01 18.2769 40.01 17.9968 40.01 17.7167C40.01 17.4366 40.7102 15.1961 40.7102 14.916C40.7102 14.776 40.7102 14.636 40.4301 14.636C40.01 14.636 39.4499 15.4762 39.0298 15.8963C38.6097 16.5964 38.4696 16.8765 38.0495 18.1368H37.3494C37.6294 17.0165 38.3296 14.916 38.3296 14.776C38.3296 14.636 38.1896 14.4959 37.7695 14.4959V14.3559C38.3296 14.2159 38.7497 14.2159 39.3098 14.0758L38.7497 16.0363C39.1698 15.3361 40.01 14.0758 40.8502 14.0758C41.2703 14.0758 41.5504 14.3559 41.5504 14.636C41.5504 15.0561 40.8502 17.2966 40.8502 17.5767C40.8502 17.7167 40.9902 17.7167 40.9902 17.7167C40.9902 17.7167 41.1303 17.4367 41.6904 17.1566ZM44.071 14.3559H43.2308L42.3906 17.4367C42.3906 17.4367 42.3906 17.4367 42.3906 17.5767C42.3906 17.7167 42.3906 17.7167 42.5306 17.7167C42.6707 17.7167 43.0908 17.2966 43.2308 17.0165H43.3708C42.9507 17.7167 42.5306 18.1368 42.1105 18.1368C41.9705 18.1368 41.6904 17.9968 41.6904 17.7167C41.6904 17.5767 41.8305 17.0165 41.9705 16.8765L42.6707 14.3559H41.9705V14.2159C41.9705 14.0758 42.2506 14.0758 42.3906 13.9358C42.6707 13.7958 43.0908 13.3757 43.3708 13.0956L43.5109 12.9556C43.5109 12.9556 43.6509 12.9556 43.5109 13.0956L43.2308 14.0758H43.931L44.071 14.3559ZM44.9112 15.7562C45.1913 14.916 45.8914 14.2159 46.4516 14.2159C46.7316 14.2159 46.7316 14.3559 46.7316 14.636C46.7316 14.776 46.7316 15.8963 44.7712 16.1763L44.9112 15.7562ZM46.8717 17.1566C46.4516 17.5767 46.0315 17.8568 45.4713 17.8568C45.0512 17.8568 44.6311 17.5767 44.6311 17.0165C44.6311 16.8765 44.6311 16.5964 44.7712 16.4564H45.0512C46.5916 16.1763 47.4318 15.4762 47.4318 14.776C47.4318 14.3559 47.1517 14.0758 46.7316 14.0758C45.4713 14.0758 43.931 15.6162 43.931 17.0165C43.931 17.5767 44.211 18.2769 45.1913 18.2769C46.0315 18.1368 46.8717 17.2966 46.8717 17.1566ZM47.5718 18.1368L48.272 15.4762C48.412 15.1961 48.412 14.776 48.412 14.776C48.412 14.636 48.412 14.4959 48.132 14.4959C47.9919 14.4959 47.9919 14.4959 47.8519 14.4959V14.2159C48.272 14.2159 48.8321 14.0758 49.2522 13.9358L48.8321 15.7562L48.9722 15.6162C49.2522 15.0561 49.9524 13.9358 50.5125 13.9358C50.7926 13.9358 50.9326 14.0758 50.9326 14.3559C50.9326 14.776 50.6526 14.776 50.5125 14.776C50.0924 14.776 50.2325 14.4959 50.0924 14.4959C49.8124 14.4959 49.2522 15.4762 49.1122 15.6162C48.6921 16.3164 48.6921 16.7365 48.272 17.9968H47.5718V18.1368Z" fill="white"/>
<path d="M54.7131 17.1567C54.293 17.7168 53.8729 18.2769 53.4528 18.2769C53.0327 18.2769 53.0327 17.9969 53.0327 17.7168C53.0327 17.4367 53.7329 15.1962 53.7329 14.9161C53.7329 14.7761 53.7329 14.6361 53.4528 14.6361C53.0327 14.6361 52.4726 15.4763 52.0525 15.8964C51.6324 16.5965 51.4923 16.8766 51.0722 18.1369H50.3721C50.6521 17.0166 51.3523 14.9161 51.3523 14.7761C51.3523 14.6361 51.2123 14.496 50.7922 14.496V14.356C51.3523 14.216 51.7724 14.216 52.3325 14.0759L51.7724 16.0364C52.1925 15.3362 53.0327 14.0759 53.8729 14.0759C54.293 14.0759 54.5731 14.356 54.5731 14.6361C54.5731 15.0562 53.8729 17.2967 53.8729 17.5768C53.8729 17.7168 54.0129 17.7168 54.0129 17.7168C54.0129 17.7168 54.293 17.4367 54.7131 17.1567Z" fill="white"/>
<path d="M55.5537 17.1567C55.5537 16.3165 56.3939 14.216 57.5142 14.216C57.7942 14.216 58.0743 14.356 58.0743 14.7761C58.0743 15.7564 57.0941 17.7169 56.1138 17.7169C55.8337 17.7169 55.5537 17.5768 55.5537 17.1567ZM58.9145 17.0167C58.4944 17.4368 58.3544 17.7169 58.2143 17.7169C58.0743 17.7169 58.0743 17.7169 58.0743 17.5768C58.0743 17.2968 58.9145 14.076 58.9145 13.9359H58.3544L58.2143 14.356C58.2143 14.076 57.9343 13.7959 57.5142 13.7959C56.2539 13.7959 54.8535 15.4763 54.8535 16.8766C54.8535 17.1567 54.8535 17.9969 55.8337 17.9969C56.3939 17.9969 56.954 17.7169 57.6542 16.5966C57.5142 17.1567 57.5142 17.4368 57.5142 17.5768C57.5142 17.7169 57.5142 17.9969 57.9343 17.9969C58.0743 18.137 58.4944 17.8569 58.9145 17.0167ZM61.5751 14.356H60.7349L59.8947 17.4368C59.8947 17.4368 59.8947 17.4368 59.8947 17.5768C59.8947 17.7169 59.8947 17.7169 60.0348 17.7169C60.1748 17.7169 60.5949 17.2967 60.7349 17.0167H60.875C60.4549 17.7169 60.0348 18.137 59.6147 18.137C59.4746 18.137 59.1946 17.9969 59.1946 17.7169C59.1946 17.5768 59.3346 17.0167 59.4746 16.8766L60.1748 14.356H59.4746V14.216C59.4746 14.076 59.7547 14.076 59.8947 13.9359C60.1748 13.7959 60.5949 13.3758 60.875 13.0957L61.015 12.9557C61.015 12.9557 61.155 12.9557 61.015 13.0957L60.7349 14.076H61.4351L61.5751 14.356ZM63.3956 17.1567C62.9755 17.7169 62.5554 18.277 62.1353 18.277C61.7152 18.277 61.7152 17.8569 61.7152 17.7169C61.7152 17.2967 62.4153 14.9162 62.4153 14.7761C62.4153 14.6361 62.2753 14.4961 61.8552 14.4961V14.216C62.2753 14.216 62.9755 14.076 63.3956 13.9359L62.5554 16.8766C62.5554 17.0167 62.4153 17.4368 62.4153 17.4368C62.4153 17.4368 62.4153 17.5768 62.5554 17.5768C62.6954 17.7169 62.9755 17.5768 63.3956 17.1567ZM63.2555 12.9557C62.9755 12.9557 62.8354 12.8157 62.8354 12.5356C62.8354 12.2555 63.1155 11.9755 63.2555 11.9755C63.5356 11.9755 63.6756 12.2555 63.6756 12.5356C63.6756 12.6756 63.5356 12.9557 63.2555 12.9557ZM66.4763 14.216C66.8964 14.216 67.1765 14.6361 67.1765 15.0562C67.1765 16.0364 66.4763 17.9969 65.3561 17.9969C64.936 17.9969 64.6559 17.7169 64.6559 17.1567C64.5159 16.0364 65.4961 14.216 66.4763 14.216ZM66.4763 13.9359C65.076 13.9359 63.6756 15.4763 63.6756 16.7366C63.6756 17.5768 64.0958 18.137 65.076 18.137C66.4763 18.137 67.7366 16.4565 67.7366 15.3363C67.8767 14.7761 67.5966 13.9359 66.4763 13.9359Z" fill="white"/>
<path d="M71.9375 17.1567C71.5174 17.7168 71.0973 18.2769 70.6772 18.2769C70.2571 18.2769 70.2571 17.9969 70.2571 17.7168C70.2571 17.4367 70.9573 15.1962 70.9573 14.9161C70.9573 14.7761 70.9572 14.636 70.6772 14.636C70.2571 14.636 69.6969 15.4762 69.2768 15.8963C68.8567 16.5965 68.7167 16.8766 68.2966 18.1369H67.5964C67.8765 17.0166 68.5767 14.9161 68.5767 14.7761C68.5767 14.636 68.4366 14.496 68.0165 14.496V14.356C68.5767 14.2159 68.9968 14.2159 69.5569 14.0759L68.9968 15.8963C69.4169 15.1962 70.2571 13.9359 71.0973 13.9359C71.5174 13.9359 71.7975 14.2159 71.7975 14.496C71.7975 14.9161 71.0973 17.1567 71.0973 17.4367C71.0973 17.5768 71.2373 17.5768 71.2373 17.5768C71.2373 17.7168 71.5174 17.4367 71.9375 17.1567ZM72.9177 17.1567C72.9177 16.3164 73.7579 14.2159 74.8782 14.2159C75.1583 14.2159 75.4383 14.356 75.4383 14.7761C75.4383 15.7563 74.4581 17.7168 73.4779 17.7168C73.1978 17.7168 72.9177 17.5768 72.9177 17.1567ZM76.2785 17.0166C75.8584 17.4367 75.7184 17.7168 75.5784 17.7168C75.4383 17.7168 75.4383 17.7168 75.4383 17.5768C75.4383 17.2967 76.2785 14.0759 76.2785 13.9359H75.7184L75.5784 14.356C75.5784 14.0759 75.2983 13.7958 74.8782 13.7958C73.6179 13.7958 72.2176 15.4762 72.2176 16.8766C72.2176 17.1567 72.2176 17.9969 73.1978 17.9969C73.7579 17.9969 74.3181 17.7168 75.0182 16.5965C74.8782 17.1567 74.8782 17.4367 74.8782 17.5768C74.8782 17.7168 74.8782 17.9969 75.2983 17.9969C75.4383 18.1369 75.8584 17.8568 76.2785 17.0166ZM78.379 17.0166C77.9589 17.7168 77.5388 18.1369 76.9787 18.1369C76.5586 18.1369 76.5586 17.8568 76.5586 17.5768C76.5586 17.4367 77.9589 12.5355 77.9589 12.2555C77.9589 11.9754 77.5388 11.9754 77.2588 11.9754V11.9754C77.6789 11.9754 78.239 11.8354 78.6591 11.6953L77.2588 17.1567C77.2588 17.2967 77.1187 17.4367 77.1187 17.5768C77.1187 17.5768 77.1187 17.7168 77.2588 17.7168C77.5388 17.8568 77.8189 17.5768 78.379 17.0166ZM79.6393 11.9754C79.7794 11.9754 79.9194 11.9754 79.9194 12.1154C79.9194 12.2555 79.9194 12.3955 79.7794 12.3955H79.6393V11.9754ZM79.3593 11.9754C79.4993 11.9754 79.4993 11.9754 79.3593 11.9754L79.4993 12.6756C79.4993 12.8156 79.4993 12.8156 79.3593 12.8156H79.7794C79.6394 12.8156 79.6393 12.8156 79.6393 12.6756V12.3955H79.7794C79.9194 12.6756 79.9194 12.8156 80.0595 12.8156H80.1995L80.0595 12.6756L79.9194 12.5355C80.0594 12.5355 80.0595 12.3955 80.0595 12.2555C80.0595 12.1154 79.9194 12.1154 79.7794 12.1154L79.3593 11.9754ZM80.6196 12.3955C80.6196 11.9754 80.3395 11.5553 79.7794 11.5553C79.6394 11.5553 79.6393 11.5553 79.4993 11.5553C79.3593 11.5553 79.3593 11.6953 79.2192 11.6953C79.0792 11.8354 79.0792 11.8354 79.0792 11.9754C79.0792 12.1154 79.0792 12.1154 79.0792 12.2555C79.0792 12.6756 79.3593 13.0957 79.9194 13.0957C80.1995 13.0957 80.6196 12.8156 80.6196 12.3955ZM80.4796 12.3955C80.4796 12.8156 80.1995 13.0957 79.7794 13.0957C79.3593 13.0957 79.0792 12.8156 79.0792 12.3955C79.0792 11.9754 79.3593 11.6953 79.7794 11.6953C80.1995 11.6953 80.4796 11.9754 80.4796 12.3955Z" fill="white"/>
<path fill-rule="evenodd" clip-rule="evenodd" d="M33.0082 10.8551C33.0082 16.1764 28.6671 20.5174 23.3458 20.5174H12.7033C7.38196 20.5174 2.90088 16.1764 2.90088 10.8551C2.90088 5.39378 7.38196 1.05273 12.7033 1.05273H23.3458C28.6671 1.05273 33.0082 5.39378 33.0082 10.8551ZM12.7033 1.7529C7.66203 1.7529 3.60105 5.81389 3.60105 10.8551C3.60105 15.7563 7.66203 19.8173 12.7033 19.8173C17.7445 19.8173 21.8055 15.7563 21.8055 10.8551C21.6654 5.81389 17.6044 1.7529 12.7033 1.7529Z" fill="white"/>
<path d="M10.6027 5.53383C8.50218 6.37404 6.96181 8.47454 6.82178 10.8551C6.82178 13.2357 8.36215 15.3362 10.6027 16.1764V5.53383ZM14.6637 16.1764C16.9042 15.3362 18.3046 13.2357 18.4446 10.8551C18.4446 8.33451 16.9042 6.234 14.6637 5.3938V16.1764Z" fill="white"/>
</svg>
