<?xml version="1.0" encoding="utf-8"?>
<!-- Generator: Adobe Illustrator 25.0.0, SVG Export Plug-In . SVG Version: 6.00 Build 0)  -->
<svg version="1.1" id="Camada_1" xmlns="http://www.w3.org/2000/svg" xmlns:xlink="http://www.w3.org/1999/xlink" x="0px" y="0px"
	 viewBox="0 0 59 14.6" style="enable-background:new 0 0 59 14.6;" xml:space="preserve">
<style type="text/css">
	.st0{clip-path:url(#SVGID_2_);}
	.st1{fill:#FFFFFF;}
	.st2{fill-rule:evenodd;clip-rule:evenodd;fill:#FFFFFF;}
</style>
<g>
	<defs>
		<rect id="SVGID_1_" y="-22.2" width="59" height="59"/>
	</defs>
	<clipPath id="SVGID_2_">
		<use xlink:href="#SVGID_1_"  style="overflow:visible;"/>
	</clipPath>
	<g class="st0">
		<path class="st1" d="M26.8,3.3c0-0.1,0.1-0.2,0.4-0.2c1.2,0,1.4,0.8,1.4,1.5c0,0.4-0.2,2.5-2.3,2.5c-0.3,0-0.5,0-0.5-0.3
			c0-0.1,0.1-0.4,0.1-0.6L26.8,3.3L26.8,3.3z M25.6,3.1c0.3,0,0.5,0.1,0.5,0.3c0,0.1-0.1,0.3-0.1,0.4l-0.8,2.9
			c-0.1,0.4-0.2,0.4-0.5,0.5v0.1h1.7c2,0,3-1.2,3-2.6C29.3,4,28.9,3,27.4,3h-1.8L25.6,3.1L25.6,3.1z M30.7,6.6
			c-0.3,0.4-0.6,0.8-0.9,0.8c-0.3,0-0.3-0.3-0.3-0.4c0-0.3,0.5-2,0.5-2.1c0-0.1-0.1-0.2-0.4-0.2V4.5c0.3,0,0.8-0.1,1.1-0.2l0,0
			l-0.6,2.1C30.1,6.6,30,6.9,30,7c0,0,0,0.1,0.1,0.1C30.2,7.1,30.4,6.9,30.7,6.6L30.7,6.6L30.7,6.6z M30.6,3.7
			c-0.2,0-0.3-0.1-0.3-0.3c0-0.2,0.2-0.4,0.3-0.4c0.2,0,0.3,0.2,0.3,0.4C30.9,3.4,30.8,3.7,30.6,3.7L30.6,3.7z M33.8,6.6
			c-0.3,0.4-0.6,0.8-0.9,0.8c-0.3,0-0.3-0.2-0.3-0.4c0-0.2,0.5-1.8,0.5-2c0-0.1,0-0.2-0.2-0.2c-0.3,0-0.7,0.6-1,0.9
			c-0.3,0.5-0.4,0.7-0.7,1.6h-0.5C31,6.5,31.4,5,31.4,4.8c0-0.1-0.1-0.2-0.4-0.2V4.6c0.4-0.1,0.7-0.1,1.1-0.2l0,0l-0.4,1.4l0,0
			c0.3-0.5,0.9-1.4,1.5-1.4c0.3,0,0.5,0.2,0.5,0.4c0,0.3-0.5,1.9-0.5,2.1C33.1,7,33.2,7,33.2,7C33.3,7,33.5,6.8,33.8,6.6L33.8,6.6
			L33.8,6.6z M34.7,5.6c0.2-0.6,0.7-1.1,1.1-1.1c0.2,0,0.2,0.1,0.2,0.3c0,0.1,0,0.9-1.4,1.1L34.7,5.6L34.7,5.6z M36,6.6
			c-0.3,0.3-0.6,0.5-1,0.5c-0.3,0-0.6-0.2-0.6-0.6c0-0.1,0-0.3,0.1-0.4l0.2,0c1.1-0.2,1.7-0.7,1.7-1.2c0-0.3-0.2-0.5-0.5-0.5
			c-0.9,0-2,1.1-2,2.1c0,0.4,0.2,0.9,0.9,0.9C35.5,7.4,36.1,6.8,36,6.6L36,6.6L36,6.6z M36.5,7.3L37,5.4c0.1-0.2,0.1-0.5,0.1-0.5
			c0-0.1,0-0.2-0.2-0.2c-0.1,0-0.1,0-0.2,0V4.5c0.3,0,0.7-0.1,1-0.2l0,0l-0.3,1.3l0,0l0.1-0.1c0.2-0.4,0.7-1.2,1.1-1.2
			c0.2,0,0.3,0.1,0.3,0.3C38.9,5,38.7,5,38.6,5c-0.3,0-0.2-0.2-0.3-0.2c-0.2,0-0.6,0.7-0.7,0.8c-0.3,0.5-0.3,0.8-0.6,1.7H36.5
			L36.5,7.3z M38.6,6.3c0,0.3,0.2,0.9,0.7,0.9c0.4,0,0.5-0.3,0.5-0.5c0-0.4-0.8-1.1-0.8-1.6c0-0.2,0.1-0.7,0.8-0.7
			c0.3,0,0.4,0.1,0.6,0.1c0.1,0,0.2-0.1,0.2-0.1h0.1l-0.1,0.9h-0.1c0-0.4-0.2-0.8-0.6-0.8c-0.1,0-0.4,0.1-0.4,0.4
			c0,0.4,0.8,1,0.8,1.6c0,0.7-0.6,0.9-1,0.9c-0.2,0-0.5-0.1-0.7-0.1c-0.1,0-0.1,0.1-0.2,0.1h-0.1l0.1-1.1H38.6L38.6,6.3z M46.1,4.2
			c0-0.2-0.1-1.1-1-1.1c-1.3,0-2,1.6-2,2.6c0,0.9,0.4,1.4,1.2,1.4c0.8,0,1.2-0.5,1.5-0.8l0.1,0.1c-0.2,0.3-0.8,1-1.8,1
			c-0.8,0-1.7-0.5-1.7-1.8c0-1.3,1.2-2.8,2.7-2.8c0.5,0,0.9,0.2,1,0.2c0.2,0,0.2-0.1,0.3-0.1h0.1l-0.2,1.3L46.1,4.2z M47.4,6.5
			c-0.3,0.5-0.6,0.8-1,0.8C46.1,7.4,46,7.1,46,7c0-0.1,1-3.6,1-3.8C47,3,46.7,3,46.5,3V2.9c0.3,0,0.7-0.1,1-0.2l0,0l-1,3.9
			c0,0.1-0.1,0.2-0.1,0.3c0,0,0,0.1,0.1,0.1C46.8,7.1,47,6.9,47.4,6.5L47.4,6.5L47.4,6.5z M50.4,6.6c-0.4,0.6-0.6,0.8-0.9,0.8
			c-0.3,0-0.3-0.2-0.3-0.3c0-0.1,0.1-0.7,0.3-1.2h0c-0.5,0.8-0.9,1.6-1.5,1.6c-0.2,0-0.4-0.1-0.4-0.4c0-0.3,0.5-2,0.5-2.1
			c0-0.2-0.1-0.2-0.4-0.2V4.5c0.3,0,0.7-0.1,1-0.2l0,0l-0.6,2.4c0,0.1,0,0.2,0.1,0.2c0.3,0,0.7-0.6,0.9-1c0.3-0.5,0.5-0.9,0.7-1.6
			h0.5l-0.5,2c0,0.1-0.1,0.4-0.1,0.5c0,0,0,0.1,0.1,0.1C49.9,7,50.1,6.8,50.4,6.6L50.4,6.6L50.4,6.6z M52.9,5.3c0,0.6-0.6,2-1.5,2
			C51,7.2,51,7,51,7c0-0.7,0.6-2.3,1.4-2.3C52.8,4.7,52.9,5,52.9,5.3L52.9,5.3z M51,3c0.4,0,0.4,0,0.4,0.2c0,0.1-0.1,0.3-0.1,0.4
			L50.4,7v0c0,0.1,0.5,0.4,0.9,0.4c1,0,2.1-1.2,2.1-2.2c0-0.5-0.3-0.8-0.8-0.8c-0.6,0-1,0.6-1.2,1l0,0c0.2-0.8,0.5-2,0.7-2.5l0,0
			c-0.3,0.1-0.7,0.1-1,0.2L51,3L51,3z M24.6,12.4c0.3-0.1,0.4-0.1,0.5-0.5L26,8.9c0-0.1,0.1-0.3,0.1-0.4c0-0.2-0.2-0.3-0.5-0.3V8.1
			h1.6v0.1c-0.3,0.1-0.4,0.1-0.5,0.5l-0.8,2.9c0,0.1-0.1,0.3-0.1,0.4c0,0.2,0.2,0.2,0.5,0.3v0.1h-1.6V12.4L24.6,12.4z"/>
		<path class="st1" d="M29.5,11.8c-0.3,0.4-0.6,0.8-0.9,0.8c-0.3,0-0.3-0.2-0.3-0.4c0-0.2,0.5-1.8,0.5-2c0-0.1,0-0.2-0.2-0.2
			c-0.3,0-0.7,0.6-1,0.9c-0.3,0.5-0.4,0.7-0.7,1.6h-0.5c0.2-0.8,0.7-2.3,0.7-2.4c0-0.1-0.1-0.2-0.4-0.2V9.8c0.4-0.1,0.7-0.1,1.1-0.2
			l0,0l-0.4,1.4l0,0c0.3-0.5,0.9-1.4,1.5-1.4c0.3,0,0.5,0.2,0.5,0.4c0,0.3-0.5,1.9-0.5,2.1c0,0.1,0.1,0.1,0.1,0.1
			C29,12.2,29.1,12,29.5,11.8L29.5,11.8L29.5,11.8z M31.2,9.8h-0.6l-0.6,2.2c0,0,0,0,0,0.1c0,0.1,0,0.1,0.1,0.1
			c0.1,0,0.4-0.3,0.5-0.5l0.1,0c-0.3,0.5-0.6,0.8-0.9,0.8c-0.1,0-0.3-0.1-0.3-0.3c0-0.1,0.1-0.5,0.2-0.6l0.5-1.8h-0.5
			c0,0,0-0.1,0-0.1c0-0.1,0.2-0.1,0.3-0.2c0.2-0.1,0.5-0.4,0.7-0.6c0,0,0.1-0.1,0.1-0.1c0,0,0.1,0,0,0.1l-0.2,0.7h0.5L31.2,9.8
			L31.2,9.8z M31.8,10.8c0.2-0.6,0.7-1.1,1.1-1.1c0.2,0,0.2,0.1,0.2,0.3c0,0.1,0,0.9-1.4,1.1L31.8,10.8L31.8,10.8z M33.2,11.8
			c-0.3,0.3-0.6,0.5-1,0.5c-0.3,0-0.6-0.2-0.6-0.6c0-0.1,0-0.3,0.1-0.4l0.2,0c1.1-0.2,1.7-0.7,1.7-1.2c0-0.3-0.2-0.5-0.5-0.5
			c-0.9,0-2,1.1-2,2.1c0,0.4,0.2,0.9,0.9,0.9C32.6,12.5,33.2,11.9,33.2,11.8L33.2,11.8z M33.7,12.5l0.5-1.9c0.1-0.2,0.1-0.5,0.1-0.5
			c0-0.1,0-0.2-0.2-0.2c-0.1,0-0.1,0-0.2,0V9.7c0.3,0,0.7-0.1,1-0.2l0,0l-0.3,1.3l0,0l0.1-0.1c0.2-0.4,0.7-1.2,1.1-1.2
			c0.2,0,0.3,0.1,0.3,0.3c0,0.3-0.2,0.3-0.3,0.3c-0.3,0-0.2-0.2-0.3-0.2c-0.2,0-0.6,0.7-0.7,0.8c-0.3,0.5-0.3,0.8-0.6,1.7H33.7
			L33.7,12.5z"/>
		<path class="st1" d="M38.8,11.8c-0.3,0.4-0.6,0.8-0.9,0.8c-0.3,0-0.3-0.2-0.3-0.4c0-0.2,0.5-1.8,0.5-2c0-0.1,0-0.2-0.2-0.2
			c-0.3,0-0.7,0.6-1,0.9c-0.3,0.5-0.4,0.7-0.7,1.6h-0.5c0.2-0.8,0.7-2.3,0.7-2.4c0-0.1-0.1-0.2-0.4-0.2V9.8c0.4-0.1,0.7-0.1,1.1-0.2
			l0,0l-0.4,1.4l0,0c0.3-0.5,0.9-1.4,1.5-1.4c0.3,0,0.5,0.2,0.5,0.4c0,0.3-0.5,1.9-0.5,2.1c0,0.1,0.1,0.1,0.1,0.1
			C38.3,12.2,38.5,12,38.8,11.8L38.8,11.8L38.8,11.8z"/>
		<path class="st1" d="M39.4,11.8c0-0.6,0.6-2.1,1.4-2.1c0.2,0,0.4,0.1,0.4,0.4c0,0.7-0.7,2.1-1.4,2.1
			C39.6,12.2,39.4,12.1,39.4,11.8z M41.8,11.7c-0.3,0.3-0.4,0.5-0.5,0.5c-0.1,0-0.1,0-0.1-0.1c0-0.2,0.6-2.5,0.6-2.6l0,0l-0.4,0l0,0
			l-0.1,0.3h0c0-0.2-0.2-0.4-0.5-0.4c-0.9,0-1.9,1.2-1.9,2.2c0,0.2,0,0.8,0.7,0.8c0.4,0,0.8-0.2,1.3-1l0,0c-0.1,0.4-0.1,0.6-0.1,0.7
			c0,0.1,0,0.3,0.3,0.3C41.2,12.5,41.5,12.3,41.8,11.7L41.8,11.7L41.8,11.7z M43.7,9.8h-0.6l-0.6,2.2c0,0,0,0,0,0.1
			c0,0.1,0,0.1,0.1,0.1c0.1,0,0.4-0.3,0.5-0.5l0.1,0c-0.3,0.5-0.6,0.8-0.9,0.8c-0.1,0-0.3-0.1-0.3-0.3c0-0.1,0.1-0.5,0.2-0.6
			l0.5-1.8h-0.5c0,0,0-0.1,0-0.1c0-0.1,0.2-0.1,0.3-0.2c0.2-0.1,0.5-0.4,0.7-0.6c0,0,0.1-0.1,0.1-0.1c0,0,0.1,0,0,0.1l-0.2,0.7h0.5
			L43.7,9.8z M45,11.8c-0.3,0.4-0.6,0.8-0.9,0.8c-0.3,0-0.3-0.3-0.3-0.4c0-0.3,0.5-2,0.5-2.1c0-0.1-0.1-0.2-0.4-0.2V9.7
			c0.3,0,0.8-0.1,1.1-0.2l0,0l-0.6,2.1c0,0.1-0.1,0.4-0.1,0.4c0,0,0,0.1,0.1,0.1C44.5,12.2,44.7,12.1,45,11.8L45,11.8z M44.9,8.8
			c-0.2,0-0.3-0.1-0.3-0.3c0-0.2,0.2-0.4,0.3-0.4c0.2,0,0.3,0.2,0.3,0.4C45.2,8.6,45.1,8.8,44.9,8.8z M47.2,9.7
			c0.3,0,0.5,0.3,0.5,0.6c0,0.7-0.5,2.1-1.3,2.1c-0.3,0-0.5-0.2-0.5-0.6C45.8,11,46.5,9.7,47.2,9.7L47.2,9.7z M47.2,9.5
			c-1,0-2,1.1-2,2c0,0.6,0.3,1,1,1c1,0,1.9-1.2,1.9-2C48.2,10.1,48,9.5,47.2,9.5L47.2,9.5z"/>
		<path class="st1" d="M51.1,11.8c-0.3,0.4-0.6,0.8-0.9,0.8c-0.3,0-0.3-0.2-0.3-0.4c0-0.2,0.5-1.8,0.5-2c0-0.1,0-0.2-0.2-0.2
			c-0.3,0-0.7,0.6-1,0.9c-0.3,0.5-0.4,0.7-0.7,1.6h-0.5c0.2-0.8,0.7-2.3,0.7-2.4c0-0.1-0.1-0.2-0.4-0.2V9.8c0.4-0.1,0.7-0.1,1.1-0.2
			l0,0L49,10.9l0,0c0.3-0.5,0.9-1.4,1.5-1.4c0.3,0,0.5,0.2,0.5,0.4c0,0.3-0.5,1.9-0.5,2.1c0,0.1,0.1,0.1,0.1,0.1
			C50.6,12.2,50.8,12,51.1,11.8L51.1,11.8L51.1,11.8z M51.8,11.8c0-0.6,0.6-2.1,1.4-2.1c0.2,0,0.4,0.1,0.4,0.4
			c0,0.7-0.7,2.1-1.4,2.1C52,12.2,51.8,12.1,51.8,11.8z M54.2,11.7c-0.3,0.3-0.4,0.5-0.5,0.5c-0.1,0-0.1,0-0.1-0.1
			c0-0.2,0.6-2.5,0.6-2.6l0,0l-0.4,0l0,0l-0.1,0.3h0c0-0.2-0.2-0.4-0.5-0.4c-0.9,0-1.9,1.2-1.9,2.2c0,0.2,0,0.8,0.7,0.8
			c0.4,0,0.8-0.2,1.3-1l0,0c-0.1,0.4-0.1,0.6-0.1,0.7c0,0.1,0,0.3,0.3,0.3C53.6,12.5,53.9,12.3,54.2,11.7L54.2,11.7L54.2,11.7z
			 M55.7,11.7c-0.3,0.5-0.6,0.8-1,0.8c-0.3,0-0.3-0.2-0.3-0.4c0-0.1,1-3.6,1-3.8c0-0.2-0.3-0.2-0.5-0.2V8.1c0.3,0,0.7-0.1,1-0.2l0,0
			l-1,3.9c0,0.1-0.1,0.2-0.1,0.3c0,0,0,0.1,0.1,0.1C55.1,12.3,55.3,12.1,55.7,11.7L55.7,11.7L55.7,11.7z M56.6,8.1L56.6,8.1
			c0.1,0,0.2,0,0.2,0.1c0,0.1,0,0.2-0.1,0.2h-0.1V8.1z M56.4,8.1C56.5,8.1,56.5,8.1,56.4,8.1l0.1,0.5c0,0.1,0,0.1-0.1,0.1v0h0.3v0
			c-0.1,0-0.1,0-0.1-0.1V8.4h0.1c0.1,0.2,0.1,0.3,0.2,0.3H57v0c0,0-0.1-0.1-0.1-0.1l-0.1-0.1c0.1,0,0.1-0.1,0.1-0.2
			c0-0.1-0.1-0.1-0.2-0.1L56.4,8.1L56.4,8.1L56.4,8.1z M57.3,8.4c0-0.3-0.2-0.6-0.6-0.6c-0.1,0-0.1,0-0.2,0c-0.1,0-0.1,0.1-0.2,0.1
			c-0.1,0.1-0.1,0.1-0.1,0.2c0,0.1,0,0.1,0,0.2c0,0.3,0.2,0.6,0.6,0.6C57,8.9,57.3,8.7,57.3,8.4z M57.2,8.4c0,0.3-0.2,0.5-0.5,0.5
			c-0.3,0-0.5-0.2-0.5-0.5c0-0.3,0.2-0.5,0.5-0.5C57,7.9,57.2,8.1,57.2,8.4z"/>
		<path class="st2" d="M23.3,7.3c0,3.8-3.1,6.9-6.9,6.9H8.8c-3.8,0-7-3.1-7-6.9c0-3.9,3.2-7,7-7h7.6C20.2,0.3,23.3,3.4,23.3,7.3z
			 M8.8,0.8c-3.6,0-6.5,2.9-6.5,6.5c0,3.5,2.9,6.4,6.5,6.4c3.6,0,6.5-2.9,6.5-6.4C15.2,3.7,12.3,0.8,8.8,0.8z"/>
		<path class="st1" d="M7.3,3.5C5.8,4.1,4.7,5.6,4.6,7.3c0,1.7,1.1,3.2,2.7,3.8V3.5z M10.2,11.1c1.6-0.6,2.6-2.1,2.7-3.8
			c0-1.8-1.1-3.3-2.7-3.9V11.1z"/>
	</g>
</g>
</svg>
