<svg width="75" height="36" viewBox="0 0 75 36" fill="none" xmlns="http://www.w3.org/2000/svg">
<g clip-path="url(#clip0_3003_409)">
<path d="M16.1811 11.0764C16.8939 10.8388 17.6543 10.7121 18.4432 10.7121C21.8966 10.7121 24.7798 13.1643 25.4388 16.4245L30.3338 15.4265C29.2122 9.88833 24.314 5.71887 18.4432 5.71887C17.0967 5.71887 15.8072 5.93748 14.5969 6.34302L16.1811 11.0764Z" fill="white"/>
<path d="M10.4052 26.9368L13.716 23.1951C12.2396 21.8866 11.3081 19.9761 11.3081 17.847C11.3081 15.7211 12.2396 13.8106 13.716 12.5053L10.4052 8.76038C7.89591 10.9845 6.31177 14.232 6.31177 17.847C6.31177 21.4652 7.89591 24.7127 10.4052 26.9368" fill="white"/>
<path d="M25.4388 19.2792C24.7766 22.5362 21.8966 24.9852 18.4464 24.9852C17.6543 24.9852 16.8908 24.8585 16.1811 24.6177L14.5969 29.3575C15.8072 29.7598 17.0999 29.9785 18.4464 29.9785C24.3109 29.9785 29.2059 25.8153 30.3338 20.2835L25.4388 19.2792Z" fill="white"/>
<path d="M34.6142 23.3504C34.4526 23.0906 34.2371 22.6755 34.1041 22.3682C33.3278 20.5686 33.293 18.7057 33.9457 16.9188C34.6649 14.9576 36.0399 13.459 37.8173 12.6923C40.0509 11.7323 42.519 11.9192 44.6608 13.1897C46.02 13.9691 46.9831 15.173 47.715 16.8776C47.8069 17.0962 47.8893 17.3275 47.9716 17.5271L34.6142 23.3504ZM39.0751 15.5849C37.4878 16.2661 36.6704 17.7552 36.8415 19.4978L43.5582 16.6051C42.4018 15.2491 40.9 14.7992 39.0751 15.5849V15.5849ZM44.3946 21.8771C44.3915 21.8771 44.3915 21.8803 44.3915 21.8803L44.2521 21.7853C43.8497 22.4347 43.2255 22.9639 42.4366 23.306C40.9349 23.9587 39.544 23.7908 38.5428 22.9132L38.4509 23.0526C38.4509 23.0526 38.4509 23.0494 38.4478 23.0494L36.7432 25.5999C37.1678 25.8945 37.6209 26.1416 38.0961 26.3412C39.9781 27.1238 41.9044 27.0858 43.8022 26.262C45.174 25.6664 46.2513 24.7603 46.9863 23.6102L44.3946 21.8771ZM52.6385 8.94104V23.1159L54.8436 24.0094L53.5922 26.9305L51.1589 25.9167C50.614 25.6791 50.2401 25.3179 49.9613 24.9092C49.692 24.4941 49.4924 23.9207 49.4924 23.1539V8.94104H52.6385ZM58.3478 19.5073C58.3478 18.3001 58.8832 17.2166 59.726 16.4815L57.4638 13.9596C55.9304 15.3156 54.964 17.2958 54.964 19.5009C54.9609 21.7092 55.9272 23.6926 57.4575 25.0486L59.7165 22.5266C58.8769 21.7884 58.3478 20.7112 58.3478 19.5073V19.5073ZM62.3651 23.5278C61.9216 23.5278 61.4907 23.4518 61.0915 23.3187L60.0111 26.5282C60.7493 26.7753 61.5382 26.9115 62.362 26.9115C65.9421 26.9147 68.9298 24.3737 69.6237 20.9995L66.3033 20.3215C65.9263 22.1559 64.3073 23.531 62.3651 23.5278V23.5278ZM62.3746 12.103C61.5541 12.103 60.7652 12.2361 60.0269 12.48L61.0978 15.6926C61.5002 15.5596 61.9279 15.4867 62.3715 15.4867C64.3168 15.4899 65.939 16.8712 66.3065 18.7088L69.6268 18.0372C68.9457 14.6566 65.958 12.1062 62.3746 12.103V12.103Z" fill="white"/>
</g>
<defs>
<clipPath id="clip0_3003_409">
<rect width="74.0898" height="35" fill="white" transform="translate(0.910156 0.35498)"/>
</clipPath>
</defs>
</svg>
