<svg width="75" height="27" viewBox="0 0 75 27" fill="none" xmlns="http://www.w3.org/2000/svg">
<g clip-path="url(#clip0_3010_348)">
<path d="M16.2001 7.25496C16.9001 7.05496 17.7001 6.95496 18.4001 6.95496C21.9001 6.95496 24.7001 9.45496 25.4001 12.655L30.3001 11.655C29.2001 6.05496 24.3001 1.95496 18.4001 1.95496C17.1001 1.95496 15.8001 2.15496 14.6001 2.55496L16.2001 7.25496Z" fill="white"/>
<path d="M10.4 23.155L13.7 19.455C12.2 18.155 11.3 16.255 11.3 14.155C11.3 12.055 12.2 10.155 13.7 8.85496L10.4 4.95496C7.90005 7.15496 6.30005 10.455 6.30005 14.055C6.30005 17.655 7.90005 20.955 10.4 23.155Z" fill="white"/>
<path d="M25.4 15.455C24.7 18.755 21.9 21.155 18.4 21.155C17.6 21.155 16.8 21.055 16.1 20.755L14.5 25.455C15.7 25.855 17 26.055 18.3 26.055C24.2 26.055 29.1 21.855 30.2 16.355L25.4 15.455Z" fill="white"/>
<path d="M34.6001 19.5549C34.4001 19.2549 34.2001 18.8549 34.1001 18.5549C33.3001 16.7549 33.3001 14.8549 33.9001 13.1549C34.6001 11.1549 36.0001 9.65491 37.8001 8.95491C40.0001 7.95491 42.5001 8.15491 44.6001 9.45491C46.0001 10.2549 46.9001 11.4549 47.7001 13.1549C47.8001 13.3549 47.9001 13.5549 48.0001 13.7549L34.6001 19.5549ZM39.1001 11.7549C37.5001 12.4549 36.7001 13.9549 36.9001 15.6549L43.6001 12.7549C42.4001 11.4549 40.9001 11.0549 39.1001 11.7549ZM44.4001 18.0549L44.3001 17.9549C43.9001 18.5549 43.3001 19.1549 42.5001 19.4549C41.0001 20.1549 39.6001 19.9549 38.6001 19.0549L38.5001 19.1549L36.8001 21.7549C37.2001 22.0549 37.7001 22.2549 38.2001 22.4549C40.1001 23.2549 42.0001 23.1549 43.9001 22.3549C45.3001 21.7549 46.3001 20.8549 47.1001 19.6549L44.4001 18.0549ZM52.6001 5.15491V19.3549L54.8001 20.2549L53.5001 23.1549L51.1001 22.1549C50.6001 21.9549 50.2001 21.5549 49.9001 21.1549C49.6001 20.7549 49.4001 20.1549 49.4001 19.3549V5.15491H52.6001ZM58.3001 15.7549C58.3001 14.5549 58.8001 13.4549 59.7001 12.7549L57.4001 10.2549C55.9001 11.6549 54.9001 13.5549 54.9001 15.7549C54.9001 17.9549 55.9001 19.9549 57.4001 21.2549L59.7001 18.7549C58.9001 17.9549 58.3001 16.9549 58.3001 15.7549ZM62.4001 19.7549C62.0001 19.7549 61.5001 19.6549 61.1001 19.5549L60.0001 22.7549C60.7001 22.9549 61.5001 23.1549 62.4001 23.1549C66.0001 23.1549 69.0001 20.6549 69.7001 17.2549L66.4001 16.5549C65.9001 18.3549 64.3001 19.7549 62.4001 19.7549ZM62.4001 8.35491C61.6001 8.35491 60.8001 8.45491 60.1001 8.75491L61.2001 11.9549C61.6001 11.8549 62.0001 11.7549 62.5001 11.7549C64.4001 11.7549 66.1001 13.1549 66.4001 14.9549L69.7001 14.2549C68.9001 10.8549 66.0001 8.35491 62.4001 8.35491Z" fill="white"/>
</g>
<defs>
<clipPath id="clip0_3010_348">
<rect width="75" height="25.8" fill="white" transform="translate(0 0.954956)"/>
</clipPath>
</defs>
</svg>
