<svg width="58" height="26" viewBox="0 0 58 26" fill="none" xmlns="http://www.w3.org/2000/svg">
<path fill-rule="evenodd" clip-rule="evenodd" d="M10.3809 0.35498H16.3333H58C57.0341 5.1155 56.0863 9.77084 55.1424 14.4073C54.9333 15.4342 54.7244 16.4602 54.5156 17.4862C54.4705 17.7078 54.4253 17.9305 54.3801 18.1534C54.1294 19.3902 53.8771 20.6351 53.6154 21.7543C52.9508 24.5979 50.4908 25.355 46.9082 25.355H0.56665C1.12106 22.7041 1.65725 19.9953 2.19673 17.2698C2.85492 13.9446 3.51802 10.5946 4.22515 7.29463C4.31275 6.88587 4.39138 6.4687 4.47016 6.05068C4.619 5.26093 4.76842 4.46811 4.98007 3.72317C5.60083 1.53867 7.75072 0.479336 10.3809 0.35498ZM16.0718 7.96251C16.4381 8.28766 16.1175 9.06863 15.8686 9.24011C15.7102 9.34913 15.1773 9.4745 14.9394 9.24022C14.6952 8.99951 14.8399 8.35158 14.9975 8.13681C15.0956 8.00321 15.24 7.91786 15.4911 7.87547C15.7618 7.8297 15.9558 7.85957 16.0718 7.96251ZM11.7454 11.3888C11.9469 10.2546 12.1478 9.11981 12.3262 7.96251H13.7782C13.207 10.721 12.7255 13.5687 12.2682 16.4411H10.8454C10.9731 15.6313 11.1223 14.8432 11.2715 14.0551C11.3842 13.4598 11.4969 12.8645 11.6003 12.2599C10.5431 12.1592 9.2489 12.1927 8.11223 12.2221C7.99553 12.2251 7.88049 12.228 7.76755 12.2308C7.51606 13.3873 7.32689 14.606 7.13775 15.8245C7.10584 16.0302 7.07392 16.2358 7.04171 16.4411H5.6189C6.00676 14.5108 6.34461 12.5304 6.68245 10.5501C6.82983 9.68616 6.97721 8.82225 7.12875 7.96251H8.52247C8.4067 8.51185 8.30687 9.07712 8.20703 9.64238C8.10492 10.2205 8.00281 10.7986 7.88367 11.3597C8.87829 11.4337 9.91935 11.4169 10.9561 11.4001C11.2197 11.3958 11.4832 11.3915 11.7454 11.3888ZM30.0672 11.4178C30.4708 10.71 31.3411 9.95444 32.4481 10.4016C32.4334 10.5393 32.4069 10.6653 32.3804 10.7913C32.3463 10.9532 32.3123 11.115 32.3032 11.3017C31.1315 10.8834 30.3196 11.6502 30.0093 12.5502C29.732 13.3549 29.6142 14.3947 29.5058 15.3523C29.4624 15.7352 29.4206 16.1048 29.3706 16.4411H28.122C28.1723 16.1771 28.2229 15.9134 28.2736 15.6497C28.6035 13.9324 28.9333 12.2151 29.1672 10.4016H30.2706C30.2407 10.5358 30.2167 10.676 30.1927 10.8161C30.1573 11.0231 30.1218 11.2301 30.0672 11.4178ZM33.0289 13.8568C33.0001 14.2301 33.0298 14.721 33.1449 15.0184C33.541 16.0413 35.2446 15.8007 36.1358 15.3379C36.1084 15.4686 36.0857 15.604 36.063 15.7394C36.0329 15.9189 36.0028 16.0985 35.9617 16.267C34.331 16.8303 32.3167 16.7503 31.8675 15.2797C31.4839 14.023 32.0266 12.0256 32.8549 11.1566C33.7009 10.2689 35.2965 10.098 36.9779 10.3726C36.9602 10.5066 36.9384 10.6365 36.9166 10.7664C36.8841 10.9598 36.8517 11.1531 36.8327 11.3598C35.8074 11.0014 34.522 10.8957 33.871 11.534C33.3991 11.9964 33.0934 13.0179 33.0289 13.8568ZM44.7885 11.3597C45.1471 10.8046 46.0659 9.87879 47.1694 10.4306C47.1203 10.5889 47.0909 10.767 47.0616 10.9449C47.0416 11.0659 47.0216 11.1869 46.9954 11.3016C45.041 10.7491 44.6489 12.5872 44.382 14.2635C44.3489 14.4713 44.3135 14.6657 44.2793 14.854C44.1842 15.3766 44.0976 15.8525 44.0918 16.441H42.8142C43.2323 14.4879 43.5908 12.4753 43.8884 10.4015H44.9917C44.9459 10.542 44.9208 10.7031 44.8957 10.8643C44.8686 11.0381 44.8415 11.2119 44.7885 11.3597ZM14.5619 10.4886C14.5594 10.4475 14.5571 10.4064 14.591 10.4016L15.8395 10.4015C15.4088 12.3422 15.0652 14.3697 14.7651 16.441H13.5166C13.9144 14.5064 14.2868 12.5461 14.5619 10.4886ZM23.3598 11.1856C23.9018 10.6146 24.6644 10.355 25.5666 10.2855C26.5957 10.2061 27.607 10.4196 27.8893 11.2438C28.05 11.7124 27.9522 12.2175 27.8572 12.7076C27.8257 12.8704 27.7945 13.0315 27.7732 13.1891C26.4249 13.1544 25.0255 13.1463 23.6791 13.1891C23.4701 14.0809 23.4738 15.1068 24.1147 15.5121C24.9636 16.0485 26.3965 15.6175 27.2216 15.3087C27.2011 15.4335 27.1763 15.5539 27.1515 15.6744C27.1101 15.8749 27.0688 16.0754 27.0474 16.296C25.0442 16.7835 22.5396 16.8558 22.3146 14.8442C22.1569 13.4341 22.6951 11.8858 23.3598 11.1856ZM23.8242 12.4922H26.757C27.0229 11.3706 26.3789 11.006 25.4794 11.0404C24.5237 11.0769 23.9171 11.818 23.8242 12.4922ZM17.9307 10.9292C18.4891 10.4785 19.777 10.0046 20.8337 10.4016C23.0082 11.2183 21.7579 15.3902 20.137 16.2669C19.3513 16.6917 17.4895 16.9018 17.2043 15.8023C17.0324 16.5164 16.9222 17.2921 16.812 18.0679C16.7609 18.4278 16.7098 18.7877 16.6526 19.1414H15.4041C15.9643 16.2754 16.4952 13.3801 16.9429 10.4016H18.0172C18.0125 10.4984 17.9931 10.5806 17.9737 10.6627C17.9543 10.745 17.9348 10.8273 17.9302 10.9243L17.9307 10.9292ZM17.901 10.9532C17.9104 10.9452 17.9208 10.9372 17.9307 10.9292C17.9328 10.9491 17.9174 10.9518 17.901 10.9532ZM17.4075 14.815C17.5364 16.0056 19.1786 16.0162 19.8466 15.3087C20.3997 14.7228 20.8588 13.2746 20.6886 12.1147C20.4925 10.7787 18.559 10.8758 17.9011 11.6792C17.8456 11.957 17.7987 12.2499 17.7502 12.5535C17.7156 12.7701 17.6801 12.9922 17.64 13.2181C17.613 13.3694 17.5782 13.5212 17.5435 13.6729C17.4553 14.0586 17.3673 14.4433 17.4075 14.815ZM51.3797 10.4886C51.565 9.62885 51.7081 8.72657 51.8151 7.78832H51.8152V7.78821H53.0639C52.9257 8.57448 52.7742 9.34748 52.6228 10.1205C52.2255 12.1475 51.8283 14.1746 51.6702 16.441H50.5378C50.5422 16.1969 50.5789 15.9848 50.6156 15.7727C50.6288 15.696 50.6421 15.6192 50.6538 15.541C50.6384 15.4903 50.5768 15.5899 50.5135 15.6924C50.4813 15.7445 50.4487 15.7972 50.4215 15.8314C50.314 15.966 50.1482 16.1601 49.986 16.2668C49.1478 16.8181 47.488 16.6611 46.9081 16.0056C46.5719 15.6251 46.4793 15.0917 46.4727 14.5538C46.4388 11.7725 48.317 9.51915 51.3797 10.4886ZM47.75 14.4086C47.7693 15.271 48.1872 15.7912 49.0277 15.7732C50.5531 15.7405 50.8037 14.089 51.0361 12.5578C51.1033 12.1151 51.169 11.6823 51.2635 11.3017C50.8046 11.145 50.351 10.9993 49.7246 11.0694C48.3791 11.2199 47.7165 12.898 47.75 14.4086ZM38.1083 11.0443C38.1619 10.8347 38.2155 10.625 38.2553 10.4016C38.5206 10.3939 38.8235 10.3694 39.1423 10.3437C40.5991 10.226 42.3898 10.0813 42.4657 11.3888C42.4936 11.8727 42.3793 12.3975 42.2618 12.9375C42.2104 13.174 42.1582 13.4134 42.1172 13.6535C42.1106 13.6921 42.104 13.7305 42.0975 13.7688C41.9468 14.6491 41.8088 15.4551 41.7978 16.4411H40.7236C40.7064 16.0855 40.7571 15.7972 40.8105 15.5121C40.2959 16.3359 38.8095 16.9357 37.5875 16.4121C36.953 16.1402 36.6218 15.1661 36.9196 14.1762C37.3645 12.6984 39.0554 12.3537 41.1299 12.5502L41.1321 12.5441C41.2239 12.2893 41.3479 11.9451 41.2751 11.621C41.054 10.6376 38.7598 11.204 38.023 11.3888C38.05 11.2725 38.0791 11.1584 38.1083 11.0443ZM38.023 14.5828C37.8383 16.0884 39.6444 15.9095 40.2878 15.2796C40.7634 14.8141 40.8961 13.9829 41.0036 13.3091C41.0069 13.2882 41.0103 13.2675 41.0135 13.247C39.5381 13.0665 38.1764 13.3322 38.023 14.5828Z" fill="white"/>
</svg>
